<?xml version="1.0" standalone="no"?>
<!DOCTYPE svg PUBLIC "-//W3C//DTD SVG 1.1//EN" "http://www.w3.org/Graphics/SVG/1.1/DTD/svg11.dtd">
<svg t="1545507392372" class="icon" style="" viewBox="0 0 1024 1024" version="1.1"
	xmlns="http://www.w3.org/2000/svg" p-id="1871"
	xmlns:xlink="http://www.w3.org/1999/xlink" width="16" height="16">
	<defs>
		<style type="text/css"></style>
	</defs>
	<path fill="#C5C5C5" d="M512.01483154 141.3103025c8.52813721 0 15.79064917 2.99102759 21.85675026 9.06701684 6.02655053 6.08093262 9.05712867 13.2890625 9.05712937 21.83697533v388.8138423l70.74151588-70.96893311c5.93261719-5.97216773 13.24951195-8.85443115 21.9506836-8.85443115 8.84454369 0 16.20098901 2.88226342 22.08911156 8.75061035 5.88317847 5.87329102 8.80004906 13.2890625 8.80004835 22.14843774 0 8.65173364-2.95642114 15.96368432-8.91375732 21.93585206l-123.58135939 123.59619164c-5.95239281 5.87329102-13.2643435 8.85937523-21.98034667 8.85937452-8.71105981 0-16.02795386-2.98608422-21.98034669-8.85937452l-123.56158447-123.59619165c-5.97216773-6.27868676-8.92858886-13.59558082-8.92858887-21.93585205 0-8.55285621 3.00585914-15.86480689 9.07196022-21.94079613 6.01666236-5.97216773 13.30883813-9.06207276 21.83697533-9.06207276 8.71600318 0 16.02795386 2.98608422 21.97045851 8.96319604l70.72174096 70.96398902V172.11047387c0-8.44409203 3.01080323-15.76098609 9.07690429-21.83697533C496.268677 144.3013308 503.5460205 141.21142578 512.0791018 141.21142578l-0.06427026 0.09887672z m92.69219948 123.59619164h123.59619164c25.57946753 0 47.42633033 8.96319604 65.52575684 27.09228492 18.10931396 18.1290896 27.16149926 39.96112085 27.16149925 65.60485864v432.48779297c0 25.64868188-9.0521853 47.48071313-27.16149925 65.60485863-18.09448242 18.03021217-39.9462893 27.09228492-65.53070093 27.09228492h-432.58666969c-25.57452416 0-47.43127442-9.06207276-65.54058838-27.09228492C212.06170654 837.57708717 203.00952125 815.74011254 203.00952125 790.09143067V357.60363769c0-25.64373779 9.0521853-47.47576904 27.16149926-65.60485863s39.96606422-27.09228492 65.54058837-27.09228492h123.5813601v61.79809547H295.71160888c-8.52813721 0-15.80053734 2.99102759-21.86663841 8.96319604-6.01666236 6.17980933-9.05712867 13.3928833-9.05712867 21.94079613v432.58666968c0 8.44409203 3.04046631 15.75604272 9.05712867 21.73315454 6.06610107 6.17980933 13.33850122 9.16589356 21.86663841 9.16589355h432.58666969c8.52813721 0 15.81042481-2.98608422 21.83697534-9.16589355 6.06610107-5.97711182 9.0769043-13.2890625 9.07690429-21.73315454v-432.58666968c0-8.55285621-3.01080323-15.76098609-9.07690429-21.94079613-6.02655053-5.97216773-13.30883813-8.95825195-21.83697534-8.95825196H604.70703102v-61.79809546z" p-id="1872"></path>
</svg>